<svg xmlns="http://www.w3.org/2000/svg" xmlns:xlink="http://www.w3.org/1999/xlink" xmlns:serif="http://www.serif.com/" width="100%" height="100%" viewBox="0 0 374 190" xml:space="preserve" style="fill-rule:evenodd;clip-rule:evenodd;stroke-miterlimit:2;"><path d="M0.634,70.855L13.965,120.608C17.213,132.418 27.785,140.728 40.028,141.096C52.271,141.464 63.202,134.151 67.154,122.558L67.873,120.171C69.008,115.966 72.816,113.041 77.171,113.026C81.526,113.011 85.396,116.072 86.56,120.269L87.252,122.558C91.356,134.098 102.508,141.611 114.745,141.082C126.982,140.553 137.348,132.459 140.441,120.608L166.732,22.504C169.258,13.539 177.445,7.353 186.759,7.374C196.073,7.395 204.321,13.947 206.807,22.924L233.217,121.487C236.889,133.285 247.885,141.263 260.24,141.094C272.596,140.925 283.258,133.03 286.607,121.135C289.618,111.488 289.664,101.164 286.736,91.49C283.67,80.253 273.943,72.105 262.343,71.055C250.742,70.005 239.821,76.048 234.787,86.552L237.443,96.464L241.121,89.623C244.757,82.053 252.593,77.417 260.978,77.873C269.364,78.331 276.7,83.935 279.493,91.856C282.514,100.657 282.647,110.198 279.874,119.08C277.438,127.895 269.522,134.078 260.381,134.306C251.238,134.534 242.935,128.479 240.063,119.797L213.527,20.821C210.064,8.788 199.009,0.535 186.488,0.635C173.967,0.735 163.165,8.734 159.894,20.821L133.641,118.786C131.342,127.605 123.558,133.894 114.453,134.289C105.347,134.685 96.955,128.83 93.899,120.243L93.214,117.942C90.994,110.789 84.3,105.976 76.813,106.151C69.326,106.326 62.929,111.198 61.047,118.447L60.507,120.243C57.567,128.87 49.344,134.572 40.234,134.3C31.123,134.027 23.183,127.574 20.764,118.786L7.921,70.855L0.634,70.855Z" style="fill:#ececec;"></path><path d="M0.634,70.855L13.965,120.608C17.213,132.418 27.785,140.728 40.028,141.096C52.271,141.464 63.202,134.151 67.154,122.558L67.873,120.171C69.008,115.966 72.816,113.041 77.171,113.026C81.526,113.011 85.396,116.072 86.56,120.269L87.252,122.558C91.356,134.098 102.508,141.611 114.745,141.082C126.982,140.553 137.348,132.459 140.441,120.608L166.732,22.504C169.258,13.539 177.445,7.353 186.759,7.374C196.073,7.395 204.321,13.947 206.807,22.924L233.217,121.487C236.889,133.285 247.885,141.263 260.24,141.094C272.596,140.925 283.258,133.03 286.607,121.135C289.618,111.488 289.664,101.164 286.736,91.49C283.67,80.253 273.943,72.105 262.343,71.055C250.742,70.005 239.821,76.048 234.787,86.552L237.443,96.464L241.121,89.623C244.757,82.053 252.593,77.417 260.978,77.873C269.364,78.331 276.7,83.935 279.493,91.856C282.514,100.657 282.647,110.198 279.874,119.08C277.438,127.895 269.522,134.078 260.381,134.306C251.238,134.534 242.935,128.479 240.063,119.797L213.527,20.821C210.064,8.788 199.009,0.535 186.488,0.635C173.967,0.735 163.165,8.734 159.894,20.821L133.641,118.786C131.342,127.605 123.558,133.894 114.453,134.289C105.347,134.685 96.955,128.83 93.899,120.243L93.214,117.942C90.994,110.789 84.3,105.976 76.813,106.151C69.326,106.326 62.929,111.198 61.047,118.447L60.507,120.243C57.567,128.87 49.344,134.572 40.234,134.3C31.123,134.027 23.183,127.574 20.764,118.786L7.921,70.855L0.634,70.855Z" style="fill:none;stroke:#393938;stroke-width:0.57px;"></path><path d="M159.874,122.558C156.196,111.862 156.197,100.237 159.874,89.541C163.705,78.352 174.196,70.813 186.022,70.751C197.849,70.689 208.515,78.394 212.463,89.542C212.696,90.181 212.905,90.828 213.091,91.482C215.927,100.983 215.916,111.112 213.063,120.608C212.887,121.264 212.687,121.914 212.463,122.556C208.633,133.745 198.141,141.285 186.315,141.348C174.489,141.41 163.822,133.705 159.874,122.558ZM166.521,91.856C163.363,101.057 163.362,111.042 166.521,120.243C169.481,128.604 177.408,134.176 186.278,134.13C195.148,134.084 202.946,128.634 205.819,120.243C205.985,119.763 206.141,119.279 206.289,118.793C208.821,110.484 208.822,101.614 206.289,93.305C206.14,92.819 205.982,92.337 205.816,91.857C202.856,83.496 194.93,77.924 186.061,77.97C177.192,78.015 169.395,83.465 166.521,91.856Z" style="fill:#ececec;"></path><path d="M159.874,122.558C156.196,111.862 156.197,100.237 159.874,89.541C163.705,78.352 174.196,70.813 186.022,70.751C197.849,70.689 208.515,78.394 212.463,89.542C212.696,90.181 212.905,90.828 213.091,91.482C215.927,100.983 215.916,111.112 213.063,120.608C212.887,121.264 212.687,121.914 212.463,122.556C208.633,133.745 198.141,141.285 186.315,141.348C174.489,141.41 163.822,133.705 159.874,122.558ZM166.521,91.856C163.363,101.057 163.362,111.042 166.521,120.243C169.481,128.604 177.408,134.176 186.278,134.13C195.148,134.084 202.946,128.634 205.819,120.243C205.985,119.763 206.141,119.279 206.289,118.793C208.821,110.484 208.822,101.614 206.289,93.305C206.14,92.819 205.982,92.337 205.816,91.857C202.856,83.496 194.93,77.924 186.061,77.97C177.192,78.015 169.395,83.465 166.521,91.856Z" style="fill:none;stroke:#393938;stroke-width:0.57px;"></path><path d="M306.302,122.558C310.052,133.199 319.845,140.532 331.112,141.136C342.379,141.739 352.811,135.677 357.674,125.497L355.067,115.761L351.312,122.483C347.654,130.024 339.827,134.632 331.458,134.173C323.09,133.715 315.763,128.138 312.949,120.243C309.791,111.046 309.793,101.053 312.949,91.856C315.889,83.228 324.111,77.526 333.222,77.798C342.332,78.071 350.272,84.525 352.69,93.313L365.536,141.244L372.825,141.244L359.491,91.49C356.241,79.681 345.671,71.371 333.427,71.002C321.185,70.634 310.254,77.947 306.302,89.541C302.623,100.241 302.622,111.857 306.302,122.558Z" style="fill:#ececec;"></path><path d="M306.302,122.558C310.052,133.199 319.845,140.532 331.112,141.136C342.379,141.739 352.811,135.677 357.674,125.497L355.067,115.761L351.312,122.483C347.654,130.024 339.827,134.632 331.458,134.173C323.09,133.715 315.763,128.138 312.949,120.243C309.791,111.046 309.793,101.053 312.949,91.856C315.889,83.228 324.111,77.526 333.222,77.798C342.332,78.071 350.272,84.525 352.69,93.313L365.536,141.244L372.825,141.244L359.491,91.49C356.241,79.681 345.671,71.371 333.427,71.002C321.185,70.634 310.254,77.947 306.302,89.541C302.623,100.241 302.622,111.857 306.302,122.558Z" style="fill:none;stroke:#393938;stroke-width:0.57px;"></path><path d="M3.746,187.773L3.746,184.954C4.001,185.185 4.3,185.39 4.65,185.575C5,185.76 5.37,185.917 5.763,186.043C6.152,186.168 6.545,186.267 6.938,186.338C7.328,186.404 7.689,186.44 8.02,186.44C9.171,186.44 10.029,186.247 10.594,185.862C11.157,185.476 11.44,184.918 11.44,184.187C11.44,183.794 11.345,183.456 11.157,183.169C10.972,182.878 10.709,182.614 10.371,182.378C10.032,182.139 9.635,181.911 9.179,181.691C8.719,181.474 8.232,181.246 7.709,181.006C7.147,180.707 6.628,180.405 6.144,180.094C5.661,179.788 5.24,179.449 4.882,179.076C4.524,178.703 4.245,178.282 4.041,177.814C3.836,177.346 3.734,176.796 3.734,176.167C3.734,175.392 3.911,174.716 4.261,174.142C4.607,173.572 5.071,173.1 5.641,172.727C6.215,172.353 6.864,172.078 7.595,171.897C8.322,171.716 9.069,171.626 9.828,171.626C11.558,171.626 12.816,171.823 13.606,172.215L13.606,174.928C12.67,174.252 11.464,173.914 9.989,173.914C9.584,173.914 9.179,173.953 8.774,174.028C8.369,174.106 8.012,174.233 7.693,174.409C7.375,174.586 7.115,174.81 6.915,175.086C6.714,175.361 6.616,175.695 6.616,176.084C6.616,176.454 6.691,176.772 6.844,177.043C6.997,177.311 7.222,177.558 7.52,177.778C7.815,178.003 8.177,178.219 8.601,178.431C9.026,178.643 9.521,178.871 10.083,179.115C10.657,179.414 11.2,179.732 11.711,180.063C12.222,180.393 12.67,180.755 13.06,181.156C13.449,181.557 13.755,182.001 13.98,182.488C14.208,182.976 14.322,183.53 14.322,184.152C14.322,184.989 14.153,185.697 13.815,186.275C13.476,186.848 13.02,187.316 12.45,187.678C11.876,188.04 11.22,188.299 10.473,188.461C9.73,188.622 8.943,188.704 8.114,188.704C7.835,188.704 7.497,188.684 7.092,188.641C6.691,188.598 6.278,188.539 5.853,188.457C5.433,188.378 5.032,188.28 4.658,188.162C4.281,188.048 3.978,187.918 3.746,187.773ZM28.625,171.909L23.211,182.43L23.211,188.421L20.47,188.421L20.47,182.488L15.194,171.909L18.316,171.909L21.563,178.997C21.603,179.08 21.717,179.398 21.909,179.953L21.945,179.953C22.016,179.705 22.141,179.387 22.326,178.997L25.723,171.909L28.625,171.909ZM29.615,187.773L29.615,184.954C29.871,185.185 30.17,185.39 30.52,185.575C30.869,185.76 31.239,185.917 31.632,186.043C32.021,186.168 32.414,186.267 32.808,186.338C33.197,186.404 33.559,186.44 33.889,186.44C35.041,186.44 35.898,186.247 36.464,185.862C37.026,185.476 37.309,184.918 37.309,184.187C37.309,183.794 37.215,183.456 37.026,183.169C36.841,182.878 36.578,182.614 36.24,182.378C35.902,182.139 35.505,181.911 35.048,181.691C34.589,181.474 34.101,181.246 33.578,181.006C33.016,180.707 32.497,180.405 32.014,180.094C31.53,179.788 31.109,179.449 30.752,179.076C30.394,178.703 30.114,178.282 29.91,177.814C29.706,177.346 29.604,176.796 29.604,176.167C29.604,175.392 29.78,174.716 30.13,174.142C30.476,173.572 30.94,173.1 31.51,172.727C32.084,172.353 32.733,172.078 33.464,171.897C34.192,171.716 34.938,171.626 35.697,171.626C37.427,171.626 38.685,171.823 39.475,172.215L39.475,174.928C38.54,174.252 37.333,173.914 35.859,173.914C35.453,173.914 35.048,173.953 34.644,174.028C34.239,174.106 33.881,174.233 33.562,174.409C33.244,174.586 32.985,174.81 32.784,175.086C32.584,175.361 32.485,175.695 32.485,176.084C32.485,176.454 32.56,176.772 32.713,177.043C32.867,177.311 33.091,177.558 33.39,177.778C33.684,178.003 34.046,178.219 34.47,178.431C34.895,178.643 35.391,178.871 35.953,179.115C36.527,179.414 37.07,179.732 37.581,180.063C38.091,180.393 38.54,180.755 38.929,181.156C39.318,181.557 39.625,182.001 39.849,182.488C40.077,182.976 40.191,183.53 40.191,184.152C40.191,184.989 40.022,185.697 39.684,186.275C39.346,186.848 38.89,187.316 38.32,187.678C37.746,188.04 37.089,188.299 36.342,188.461C35.599,188.622 34.813,188.704 33.983,188.704C33.704,188.704 33.366,188.684 32.961,188.641C32.56,188.598 32.147,188.539 31.723,188.457C31.302,188.378 30.901,188.28 30.527,188.162C30.15,188.048 29.847,187.918 29.615,187.773ZM53.586,174.244L48.84,174.244L48.84,188.421L46.1,188.421L46.1,174.244L41.363,174.244L41.363,171.909L53.586,171.909L53.586,174.244ZM65.278,188.421L56.007,188.421L56.007,171.909L64.908,171.909L64.908,174.244L58.748,174.244L58.748,178.915L64.425,178.915L64.425,181.226L58.748,181.226L58.748,186.109L65.278,186.109L65.278,188.421ZM85.95,188.421L83.233,188.421L83.233,177.735C83.233,176.859 83.288,175.789 83.394,174.523L83.347,174.523C83.178,175.243 83.028,175.762 82.899,176.076L77.969,188.421L76.082,188.421L71.14,176.171C71.002,175.809 70.853,175.259 70.699,174.523L70.656,174.523C70.715,175.184 70.746,176.261 70.746,177.759L70.746,188.421L68.215,188.421L68.215,171.909L72.071,171.909L76.412,182.905C76.742,183.75 76.958,184.379 77.06,184.792L77.115,184.792C77.403,183.928 77.63,183.283 77.807,182.858L82.23,171.909L85.95,171.909L85.95,188.421ZM107.754,188.421L105.037,188.421L105.037,177.735C105.037,176.859 105.092,175.789 105.199,174.523L105.151,174.523C104.982,175.243 104.833,175.762 104.703,176.076L99.773,188.421L97.886,188.421L92.944,176.171C92.806,175.809 92.657,175.259 92.504,174.523L92.46,174.523C92.519,175.184 92.551,176.261 92.551,177.759L92.551,188.421L90.019,188.421L90.019,171.909L93.876,171.909L98.216,182.905C98.546,183.75 98.762,184.379 98.865,184.792L98.92,184.792C99.207,183.928 99.435,183.283 99.612,182.858L104.035,171.909L107.754,171.909L107.754,188.421ZM118.629,188.704C116.25,188.704 114.343,187.934 112.908,186.389C111.477,184.844 110.762,182.834 110.762,180.361C110.762,177.704 111.493,175.581 112.952,174C114.41,172.416 116.391,171.626 118.892,171.626C121.211,171.626 123.079,172.393 124.498,173.93C125.914,175.467 126.621,177.476 126.621,179.957C126.621,182.654 125.898,184.785 124.447,186.353C122.992,187.922 121.054,188.704 118.629,188.704ZM118.754,174.032C117.245,174.032 116.014,174.598 115.063,175.726C114.115,176.855 113.639,178.341 113.639,180.181C113.639,182.017 114.103,183.495 115.023,184.615C115.943,185.736 117.15,186.298 118.64,186.298C120.221,186.298 121.471,185.763 122.383,184.698C123.295,183.629 123.755,182.135 123.755,180.216C123.755,178.242 123.311,176.721 122.422,175.644C121.538,174.57 120.315,174.032 118.754,174.032ZM121.101,170.423C120.72,170.423 120.386,170.297 120.107,170.045C119.828,169.79 119.686,169.467 119.686,169.078C119.686,168.705 119.82,168.39 120.091,168.134C120.358,167.883 120.684,167.757 121.07,167.757C121.475,167.757 121.821,167.887 122.1,168.142C122.379,168.398 122.521,168.712 122.521,169.078C122.521,169.456 122.387,169.77 122.116,170.034C121.848,170.293 121.51,170.423 121.101,170.423ZM116.313,170.423C115.912,170.423 115.57,170.289 115.287,170.026C115.004,169.762 114.862,169.448 114.862,169.078C114.862,168.705 114.996,168.39 115.271,168.134C115.542,167.883 115.872,167.757 116.266,167.757C116.659,167.757 116.997,167.887 117.284,168.142C117.571,168.398 117.716,168.712 117.716,169.078C117.716,169.456 117.579,169.77 117.304,170.034C117.024,170.293 116.694,170.423 116.313,170.423ZM129.652,188.421L129.652,171.909L134.893,171.909C136.489,171.909 137.755,172.259 138.687,172.954C139.619,173.655 140.086,174.563 140.086,175.679C140.086,176.615 139.819,177.429 139.293,178.117C138.762,178.809 138.027,179.296 137.091,179.591L137.091,179.634C138.227,179.768 139.135,180.188 139.816,180.896C140.496,181.608 140.834,182.532 140.834,183.672C140.834,185.083 140.279,186.231 139.167,187.108C138.05,187.985 136.646,188.421 134.948,188.421L129.652,188.421ZM132.381,174.102L132.381,178.797L134.154,178.797C135.105,178.797 135.852,178.573 136.395,178.125C136.937,177.676 137.205,177.039 137.205,176.218C137.205,174.806 136.261,174.102 134.374,174.102L132.381,174.102ZM132.381,180.991L132.381,186.227L134.72,186.227C135.738,186.227 136.529,185.992 137.087,185.52C137.641,185.044 137.92,184.395 137.92,183.562C137.92,181.848 136.733,180.991 134.362,180.991L132.381,180.991ZM153.171,188.421L143.9,188.421L143.9,171.909L152.801,171.909L152.801,174.244L146.64,174.244L146.64,178.915L152.318,178.915L152.318,181.226L146.64,181.226L146.64,186.109L153.171,186.109L153.171,188.421ZM165.252,188.421L156.107,188.421L156.107,171.909L158.848,171.909L158.848,186.109L165.252,186.109L165.252,188.421ZM183.034,174.244L176.862,174.244L176.862,179.198L182.551,179.198L182.551,181.509L176.862,181.509L176.862,188.421L174.122,188.421L174.122,171.909L183.034,171.909L183.034,174.244ZM198.678,181.746C198.678,186.384 196.48,188.704 192.089,188.704C187.882,188.704 185.779,186.475 185.779,182.013L185.779,171.909L188.519,171.909L188.519,181.439C188.519,184.678 189.777,186.298 192.297,186.298C194.723,186.298 195.938,184.737 195.938,181.612L195.938,171.909L198.678,171.909L198.678,181.746ZM194.617,170.399C194.235,170.399 193.901,170.273 193.622,170.022C193.343,169.766 193.201,169.444 193.201,169.055C193.201,168.681 193.335,168.367 193.606,168.111C193.874,167.859 194.2,167.734 194.585,167.734C194.99,167.734 195.336,167.863 195.615,168.119C195.894,168.374 196.036,168.689 196.036,169.055C196.036,169.432 195.902,169.746 195.631,170.01C195.364,170.269 195.026,170.399 194.617,170.399ZM189.828,170.399C189.427,170.399 189.085,170.265 188.802,170.002C188.519,169.739 188.377,169.424 188.377,169.055C188.377,168.681 188.511,168.367 188.786,168.111C189.058,167.859 189.388,167.734 189.781,167.734C190.174,167.734 190.512,167.863 190.799,168.119C191.086,168.374 191.232,168.689 191.232,169.055C191.232,169.432 191.094,169.746 190.819,170.01C190.54,170.269 190.209,170.399 189.828,170.399ZM215.324,188.421L212.12,188.421L209.482,184.002C209.246,183.593 209.014,183.247 208.786,182.96C208.558,182.673 208.33,182.437 208.094,182.253C207.862,182.068 207.606,181.934 207.327,181.848C207.052,181.765 206.741,181.722 206.395,181.722L205.291,181.722L205.291,188.421L202.562,188.421L202.562,171.909L207.996,171.909C208.774,171.909 209.485,171.999 210.138,172.184C210.791,172.369 211.361,172.648 211.844,173.022C212.328,173.391 212.706,173.859 212.977,174.413C213.252,174.971 213.386,175.62 213.386,176.367C213.386,176.949 213.299,177.488 213.13,177.975C212.957,178.463 212.71,178.895 212.391,179.277C212.073,179.658 211.687,179.98 211.239,180.247C210.791,180.519 210.284,180.727 209.726,180.873L209.726,180.916C210.024,181.085 210.284,181.274 210.508,181.474C210.732,181.679 210.94,181.887 211.141,182.103C211.341,182.32 211.538,182.563 211.734,182.834C211.931,183.106 212.147,183.424 212.387,183.782L215.324,188.421ZM205.291,174.126L205.291,179.504L207.571,179.504C207.992,179.504 208.385,179.438 208.739,179.308C209.097,179.178 209.407,178.989 209.667,178.742C209.93,178.498 210.13,178.195 210.276,177.841C210.425,177.488 210.496,177.091 210.496,176.654C210.496,175.86 210.248,175.243 209.749,174.794C209.25,174.35 208.53,174.126 207.594,174.126L205.291,174.126ZM223.729,188.421L223.729,171.909L228.97,171.909C230.566,171.909 231.832,172.259 232.764,172.954C233.696,173.655 234.164,174.563 234.164,175.679C234.164,176.615 233.896,177.429 233.37,178.117C232.839,178.809 232.104,179.296 231.168,179.591L231.168,179.634C232.304,179.768 233.212,180.188 233.892,180.896C234.572,181.608 234.911,182.532 234.911,183.672C234.911,185.083 234.356,186.231 233.244,187.108C232.127,187.985 230.723,188.421 229.025,188.421L223.729,188.421ZM226.458,174.102L226.458,178.797L228.231,178.797C229.182,178.797 229.929,178.573 230.472,178.125C231.015,177.676 231.282,177.039 231.282,176.218C231.282,174.806 230.338,174.102 228.451,174.102L226.458,174.102ZM226.458,180.991L226.458,186.227L228.797,186.227C229.816,186.227 230.606,185.992 231.164,185.52C231.718,185.044 231.997,184.395 231.997,183.562C231.997,181.848 230.81,180.991 228.439,180.991L226.458,180.991ZM251.545,188.421L248.537,188.421L247.051,184.222L240.556,184.222L239.129,188.421L236.134,188.421L242.318,171.909L245.404,171.909L251.545,188.421ZM246.328,181.981L244.036,175.4C243.965,175.184 243.89,174.838 243.816,174.362L243.769,174.362C243.702,174.798 243.623,175.144 243.541,175.4L241.268,181.981L246.328,181.981ZM253.813,188.421L253.813,171.909L258.578,171.909C264.668,171.909 267.715,174.59 267.715,179.957C267.715,182.508 266.87,184.552 265.179,186.102C263.489,187.646 261.224,188.421 258.386,188.421L253.813,188.421ZM256.542,174.244L256.542,186.109L258.731,186.109C260.658,186.109 262.156,185.579 263.229,184.521C264.299,183.464 264.833,181.965 264.833,180.031C264.833,176.175 262.836,174.244 258.834,174.244L256.542,174.244ZM280.005,188.421L270.734,188.421L270.734,171.909L279.636,171.909L279.636,174.244L273.475,174.244L273.475,178.915L279.152,178.915L279.152,181.226L273.475,181.226L273.475,186.109L280.005,186.109L280.005,188.421ZM294.205,173.112L285.151,186.109L294.088,186.109L294.088,188.421L281.314,188.421L281.314,187.167L290.404,174.244L282.018,174.244L282.018,171.909L294.205,171.909L294.205,173.112ZM299.592,188.421L296.773,188.421L296.773,171.909L299.592,171.909L299.592,188.421ZM321.396,188.421L318.679,188.421L318.679,177.735C318.679,176.859 318.734,175.789 318.841,174.523L318.793,174.523C318.624,175.243 318.475,175.762 318.345,176.076L313.415,188.421L311.528,188.421L306.586,176.171C306.448,175.809 306.299,175.259 306.146,174.523L306.103,174.523C306.161,175.184 306.193,176.261 306.193,177.759L306.193,188.421L303.661,188.421L303.661,171.909L307.518,171.909L311.858,182.905C312.188,183.75 312.405,184.379 312.507,184.792L312.562,184.792C312.849,183.928 313.077,183.283 313.254,182.858L317.677,171.909L321.396,171.909L321.396,188.421ZM343.2,188.421L340.483,188.421L340.483,177.735C340.483,176.859 340.539,175.789 340.645,174.523L340.597,174.523C340.429,175.243 340.279,175.762 340.149,176.076L335.219,188.421L333.332,188.421L328.39,176.171C328.253,175.809 328.103,175.259 327.95,174.523L327.907,174.523C327.966,175.184 327.997,176.261 327.997,177.759L327.997,188.421L325.465,188.421L325.465,171.909L329.322,171.909L333.662,182.905C333.992,183.75 334.209,184.379 334.311,184.792L334.366,184.792C334.653,183.928 334.881,183.283 335.058,182.858L339.481,171.909L343.2,171.909L343.2,188.421ZM356.54,188.421L347.269,188.421L347.269,171.909L356.17,171.909L356.17,174.244L350.01,174.244L350.01,178.915L355.687,178.915L355.687,181.226L350.01,181.226L350.01,186.109L356.54,186.109L356.54,188.421ZM372.238,188.421L369.034,188.421L366.396,184.002C366.16,183.593 365.928,183.247 365.7,182.96C365.472,182.673 365.244,182.437 365.008,182.253C364.776,182.068 364.521,181.934 364.242,181.848C363.966,181.765 363.656,181.722 363.31,181.722L362.205,181.722L362.205,188.421L359.476,188.421L359.476,171.909L364.91,171.909C365.689,171.909 366.4,171.999 367.053,172.184C367.705,172.369 368.275,172.648 368.759,173.022C369.242,173.391 369.62,173.859 369.891,174.413C370.166,174.971 370.3,175.62 370.3,176.367C370.3,176.949 370.214,177.488 370.045,177.975C369.871,178.463 369.624,178.895 369.305,179.277C368.987,179.658 368.601,179.98 368.153,180.247C367.705,180.519 367.198,180.727 366.64,180.873L366.64,180.916C366.939,181.085 367.198,181.274 367.422,181.474C367.646,181.679 367.855,181.887 368.055,182.103C368.256,182.32 368.452,182.563 368.649,182.834C368.845,183.106 369.062,183.424 369.301,183.782L372.238,188.421ZM362.205,174.126L362.205,179.504L364.485,179.504C364.906,179.504 365.299,179.438 365.653,179.308C366.011,179.178 366.321,178.989 366.581,178.742C366.844,178.498 367.045,178.195 367.19,177.841C367.339,177.488 367.41,177.091 367.41,176.654C367.41,175.86 367.163,175.243 366.663,174.794C366.164,174.35 365.445,174.126 364.509,174.126L362.205,174.126Z" style="fill:#ececec;"></path><path d="M3.746,187.773L3.746,184.954C4.001,185.185 4.3,185.39 4.65,185.575C5,185.76 5.37,185.917 5.763,186.043C6.152,186.168 6.545,186.267 6.938,186.338C7.328,186.404 7.689,186.44 8.02,186.44C9.171,186.44 10.029,186.247 10.594,185.862C11.157,185.476 11.44,184.918 11.44,184.187C11.44,183.794 11.345,183.456 11.157,183.169C10.972,182.878 10.709,182.614 10.371,182.378C10.032,182.139 9.635,181.911 9.179,181.691C8.719,181.474 8.232,181.246 7.709,181.006C7.147,180.707 6.628,180.405 6.144,180.094C5.661,179.788 5.24,179.449 4.882,179.076C4.524,178.703 4.245,178.282 4.041,177.814C3.836,177.346 3.734,176.796 3.734,176.167C3.734,175.392 3.911,174.716 4.261,174.142C4.607,173.572 5.071,173.1 5.641,172.727C6.215,172.353 6.864,172.078 7.595,171.897C8.322,171.716 9.069,171.626 9.828,171.626C11.558,171.626 12.816,171.823 13.606,172.215L13.606,174.928C12.67,174.252 11.464,173.914 9.989,173.914C9.584,173.914 9.179,173.953 8.774,174.028C8.369,174.106 8.012,174.233 7.693,174.409C7.375,174.586 7.115,174.81 6.915,175.086C6.714,175.361 6.616,175.695 6.616,176.084C6.616,176.454 6.691,176.772 6.844,177.043C6.997,177.311 7.222,177.558 7.52,177.778C7.815,178.003 8.177,178.219 8.601,178.431C9.026,178.643 9.521,178.871 10.083,179.115C10.657,179.414 11.2,179.732 11.711,180.063C12.222,180.393 12.67,180.755 13.06,181.156C13.449,181.557 13.755,182.001 13.98,182.488C14.208,182.976 14.322,183.53 14.322,184.152C14.322,184.989 14.153,185.697 13.815,186.275C13.476,186.848 13.02,187.316 12.45,187.678C11.876,188.04 11.22,188.299 10.473,188.461C9.73,188.622 8.943,188.704 8.114,188.704C7.835,188.704 7.497,188.684 7.092,188.641C6.691,188.598 6.278,188.539 5.853,188.457C5.433,188.378 5.032,188.28 4.658,188.162C4.281,188.048 3.978,187.918 3.746,187.773ZM28.625,171.909L23.211,182.43L23.211,188.421L20.47,188.421L20.47,182.488L15.194,171.909L18.316,171.909L21.563,178.997C21.603,179.08 21.717,179.398 21.909,179.953L21.945,179.953C22.016,179.705 22.141,179.387 22.326,178.997L25.723,171.909L28.625,171.909ZM29.615,187.773L29.615,184.954C29.871,185.185 30.17,185.39 30.52,185.575C30.869,185.76 31.239,185.917 31.632,186.043C32.021,186.168 32.414,186.267 32.808,186.338C33.197,186.404 33.559,186.44 33.889,186.44C35.041,186.44 35.898,186.247 36.464,185.862C37.026,185.476 37.309,184.918 37.309,184.187C37.309,183.794 37.215,183.456 37.026,183.169C36.841,182.878 36.578,182.614 36.24,182.378C35.902,182.139 35.505,181.911 35.048,181.691C34.589,181.474 34.101,181.246 33.578,181.006C33.016,180.707 32.497,180.405 32.014,180.094C31.53,179.788 31.109,179.449 30.752,179.076C30.394,178.703 30.114,178.282 29.91,177.814C29.706,177.346 29.604,176.796 29.604,176.167C29.604,175.392 29.78,174.716 30.13,174.142C30.476,173.572 30.94,173.1 31.51,172.727C32.084,172.353 32.733,172.078 33.464,171.897C34.192,171.716 34.938,171.626 35.697,171.626C37.427,171.626 38.685,171.823 39.475,172.215L39.475,174.928C38.54,174.252 37.333,173.914 35.859,173.914C35.453,173.914 35.048,173.953 34.644,174.028C34.239,174.106 33.881,174.233 33.562,174.409C33.244,174.586 32.985,174.81 32.784,175.086C32.584,175.361 32.485,175.695 32.485,176.084C32.485,176.454 32.56,176.772 32.713,177.043C32.867,177.311 33.091,177.558 33.39,177.778C33.684,178.003 34.046,178.219 34.47,178.431C34.895,178.643 35.391,178.871 35.953,179.115C36.527,179.414 37.07,179.732 37.581,180.063C38.091,180.393 38.54,180.755 38.929,181.156C39.318,181.557 39.625,182.001 39.849,182.488C40.077,182.976 40.191,183.53 40.191,184.152C40.191,184.989 40.022,185.697 39.684,186.275C39.346,186.848 38.89,187.316 38.32,187.678C37.746,188.04 37.089,188.299 36.342,188.461C35.599,188.622 34.813,188.704 33.983,188.704C33.704,188.704 33.366,188.684 32.961,188.641C32.56,188.598 32.147,188.539 31.723,188.457C31.302,188.378 30.901,188.28 30.527,188.162C30.15,188.048 29.847,187.918 29.615,187.773ZM53.586,174.244L48.84,174.244L48.84,188.421L46.1,188.421L46.1,174.244L41.363,174.244L41.363,171.909L53.586,171.909L53.586,174.244ZM65.278,188.421L56.007,188.421L56.007,171.909L64.908,171.909L64.908,174.244L58.748,174.244L58.748,178.915L64.425,178.915L64.425,181.226L58.748,181.226L58.748,186.109L65.278,186.109L65.278,188.421ZM85.95,188.421L83.233,188.421L83.233,177.735C83.233,176.859 83.288,175.789 83.394,174.523L83.347,174.523C83.178,175.243 83.028,175.762 82.899,176.076L77.969,188.421L76.082,188.421L71.14,176.171C71.002,175.809 70.853,175.259 70.699,174.523L70.656,174.523C70.715,175.184 70.746,176.261 70.746,177.759L70.746,188.421L68.215,188.421L68.215,171.909L72.071,171.909L76.412,182.905C76.742,183.75 76.958,184.379 77.06,184.792L77.115,184.792C77.403,183.928 77.63,183.283 77.807,182.858L82.23,171.909L85.95,171.909L85.95,188.421ZM107.754,188.421L105.037,188.421L105.037,177.735C105.037,176.859 105.092,175.789 105.199,174.523L105.151,174.523C104.982,175.243 104.833,175.762 104.703,176.076L99.773,188.421L97.886,188.421L92.944,176.171C92.806,175.809 92.657,175.259 92.504,174.523L92.46,174.523C92.519,175.184 92.551,176.261 92.551,177.759L92.551,188.421L90.019,188.421L90.019,171.909L93.876,171.909L98.216,182.905C98.546,183.75 98.762,184.379 98.865,184.792L98.92,184.792C99.207,183.928 99.435,183.283 99.612,182.858L104.035,171.909L107.754,171.909L107.754,188.421ZM118.629,188.704C116.25,188.704 114.343,187.934 112.908,186.389C111.477,184.844 110.762,182.834 110.762,180.361C110.762,177.704 111.493,175.581 112.952,174C114.41,172.416 116.391,171.626 118.892,171.626C121.211,171.626 123.079,172.393 124.498,173.93C125.914,175.467 126.621,177.476 126.621,179.957C126.621,182.654 125.898,184.785 124.447,186.353C122.992,187.922 121.054,188.704 118.629,188.704ZM118.754,174.032C117.245,174.032 116.014,174.598 115.063,175.726C114.115,176.855 113.639,178.341 113.639,180.181C113.639,182.017 114.103,183.495 115.023,184.615C115.943,185.736 117.15,186.298 118.64,186.298C120.221,186.298 121.471,185.763 122.383,184.698C123.295,183.629 123.755,182.135 123.755,180.216C123.755,178.242 123.311,176.721 122.422,175.644C121.538,174.57 120.315,174.032 118.754,174.032ZM121.101,170.423C120.72,170.423 120.386,170.297 120.107,170.045C119.828,169.79 119.686,169.467 119.686,169.078C119.686,168.705 119.82,168.39 120.091,168.134C120.358,167.883 120.684,167.757 121.07,167.757C121.475,167.757 121.821,167.887 122.1,168.142C122.379,168.398 122.521,168.712 122.521,169.078C122.521,169.456 122.387,169.77 122.116,170.034C121.848,170.293 121.51,170.423 121.101,170.423ZM116.313,170.423C115.912,170.423 115.57,170.289 115.287,170.026C115.004,169.762 114.862,169.448 114.862,169.078C114.862,168.705 114.996,168.39 115.271,168.134C115.542,167.883 115.872,167.757 116.266,167.757C116.659,167.757 116.997,167.887 117.284,168.142C117.571,168.398 117.716,168.712 117.716,169.078C117.716,169.456 117.579,169.77 117.304,170.034C117.024,170.293 116.694,170.423 116.313,170.423ZM129.652,188.421L129.652,171.909L134.893,171.909C136.489,171.909 137.755,172.259 138.687,172.954C139.619,173.655 140.086,174.563 140.086,175.679C140.086,176.615 139.819,177.429 139.293,178.117C138.762,178.809 138.027,179.296 137.091,179.591L137.091,179.634C138.227,179.768 139.135,180.188 139.816,180.896C140.496,181.608 140.834,182.532 140.834,183.672C140.834,185.083 140.279,186.231 139.167,187.108C138.05,187.985 136.646,188.421 134.948,188.421L129.652,188.421ZM132.381,174.102L132.381,178.797L134.154,178.797C135.105,178.797 135.852,178.573 136.395,178.125C136.937,177.676 137.205,177.039 137.205,176.218C137.205,174.806 136.261,174.102 134.374,174.102L132.381,174.102ZM132.381,180.991L132.381,186.227L134.72,186.227C135.738,186.227 136.529,185.992 137.087,185.52C137.641,185.044 137.92,184.395 137.92,183.562C137.92,181.848 136.733,180.991 134.362,180.991L132.381,180.991ZM153.171,188.421L143.9,188.421L143.9,171.909L152.801,171.909L152.801,174.244L146.64,174.244L146.64,178.915L152.318,178.915L152.318,181.226L146.64,181.226L146.64,186.109L153.171,186.109L153.171,188.421ZM165.252,188.421L156.107,188.421L156.107,171.909L158.848,171.909L158.848,186.109L165.252,186.109L165.252,188.421ZM183.034,174.244L176.862,174.244L176.862,179.198L182.551,179.198L182.551,181.509L176.862,181.509L176.862,188.421L174.122,188.421L174.122,171.909L183.034,171.909L183.034,174.244ZM198.678,181.746C198.678,186.384 196.48,188.704 192.089,188.704C187.882,188.704 185.779,186.475 185.779,182.013L185.779,171.909L188.519,171.909L188.519,181.439C188.519,184.678 189.777,186.298 192.297,186.298C194.723,186.298 195.938,184.737 195.938,181.612L195.938,171.909L198.678,171.909L198.678,181.746ZM194.617,170.399C194.235,170.399 193.901,170.273 193.622,170.022C193.343,169.766 193.201,169.444 193.201,169.055C193.201,168.681 193.335,168.367 193.606,168.111C193.874,167.859 194.2,167.734 194.585,167.734C194.99,167.734 195.336,167.863 195.615,168.119C195.894,168.374 196.036,168.689 196.036,169.055C196.036,169.432 195.902,169.746 195.631,170.01C195.364,170.269 195.026,170.399 194.617,170.399ZM189.828,170.399C189.427,170.399 189.085,170.265 188.802,170.002C188.519,169.739 188.377,169.424 188.377,169.055C188.377,168.681 188.511,168.367 188.786,168.111C189.058,167.859 189.388,167.734 189.781,167.734C190.174,167.734 190.512,167.863 190.799,168.119C191.086,168.374 191.232,168.689 191.232,169.055C191.232,169.432 191.094,169.746 190.819,170.01C190.54,170.269 190.209,170.399 189.828,170.399ZM215.324,188.421L212.12,188.421L209.482,184.002C209.246,183.593 209.014,183.247 208.786,182.96C208.558,182.673 208.33,182.437 208.094,182.253C207.862,182.068 207.606,181.934 207.327,181.848C207.052,181.765 206.741,181.722 206.395,181.722L205.291,181.722L205.291,188.421L202.562,188.421L202.562,171.909L207.996,171.909C208.774,171.909 209.485,171.999 210.138,172.184C210.791,172.369 211.361,172.648 211.844,173.022C212.328,173.391 212.706,173.859 212.977,174.413C213.252,174.971 213.386,175.62 213.386,176.367C213.386,176.949 213.299,177.488 213.13,177.975C212.957,178.463 212.71,178.895 212.391,179.277C212.073,179.658 211.687,179.98 211.239,180.247C210.791,180.519 210.284,180.727 209.726,180.873L209.726,180.916C210.024,181.085 210.284,181.274 210.508,181.474C210.732,181.679 210.94,181.887 211.141,182.103C211.341,182.32 211.538,182.563 211.734,182.834C211.931,183.106 212.147,183.424 212.387,183.782L215.324,188.421ZM205.291,174.126L205.291,179.504L207.571,179.504C207.992,179.504 208.385,179.438 208.739,179.308C209.097,179.178 209.407,178.989 209.667,178.742C209.93,178.498 210.13,178.195 210.276,177.841C210.425,177.488 210.496,177.091 210.496,176.654C210.496,175.86 210.248,175.243 209.749,174.794C209.25,174.35 208.53,174.126 207.594,174.126L205.291,174.126ZM223.729,188.421L223.729,171.909L228.97,171.909C230.566,171.909 231.832,172.259 232.764,172.954C233.696,173.655 234.164,174.563 234.164,175.679C234.164,176.615 233.896,177.429 233.37,178.117C232.839,178.809 232.104,179.296 231.168,179.591L231.168,179.634C232.304,179.768 233.212,180.188 233.892,180.896C234.572,181.608 234.911,182.532 234.911,183.672C234.911,185.083 234.356,186.231 233.244,187.108C232.127,187.985 230.723,188.421 229.025,188.421L223.729,188.421ZM226.458,174.102L226.458,178.797L228.231,178.797C229.182,178.797 229.929,178.573 230.472,178.125C231.015,177.676 231.282,177.039 231.282,176.218C231.282,174.806 230.338,174.102 228.451,174.102L226.458,174.102ZM226.458,180.991L226.458,186.227L228.797,186.227C229.816,186.227 230.606,185.992 231.164,185.52C231.718,185.044 231.997,184.395 231.997,183.562C231.997,181.848 230.81,180.991 228.439,180.991L226.458,180.991ZM251.545,188.421L248.537,188.421L247.051,184.222L240.556,184.222L239.129,188.421L236.134,188.421L242.318,171.909L245.404,171.909L251.545,188.421ZM246.328,181.981L244.036,175.4C243.965,175.184 243.89,174.838 243.816,174.362L243.769,174.362C243.702,174.798 243.623,175.144 243.541,175.4L241.268,181.981L246.328,181.981ZM253.813,188.421L253.813,171.909L258.578,171.909C264.668,171.909 267.715,174.59 267.715,179.957C267.715,182.508 266.87,184.552 265.179,186.102C263.489,187.646 261.224,188.421 258.386,188.421L253.813,188.421ZM256.542,174.244L256.542,186.109L258.731,186.109C260.658,186.109 262.156,185.579 263.229,184.521C264.299,183.464 264.833,181.965 264.833,180.031C264.833,176.175 262.836,174.244 258.834,174.244L256.542,174.244ZM280.005,188.421L270.734,188.421L270.734,171.909L279.636,171.909L279.636,174.244L273.475,174.244L273.475,178.915L279.152,178.915L279.152,181.226L273.475,181.226L273.475,186.109L280.005,186.109L280.005,188.421ZM294.205,173.112L285.151,186.109L294.088,186.109L294.088,188.421L281.314,188.421L281.314,187.167L290.404,174.244L282.018,174.244L282.018,171.909L294.205,171.909L294.205,173.112ZM299.592,188.421L296.773,188.421L296.773,171.909L299.592,171.909L299.592,188.421ZM321.396,188.421L318.679,188.421L318.679,177.735C318.679,176.859 318.734,175.789 318.841,174.523L318.793,174.523C318.624,175.243 318.475,175.762 318.345,176.076L313.415,188.421L311.528,188.421L306.586,176.171C306.448,175.809 306.299,175.259 306.146,174.523L306.103,174.523C306.161,175.184 306.193,176.261 306.193,177.759L306.193,188.421L303.661,188.421L303.661,171.909L307.518,171.909L311.858,182.905C312.188,183.75 312.405,184.379 312.507,184.792L312.562,184.792C312.849,183.928 313.077,183.283 313.254,182.858L317.677,171.909L321.396,171.909L321.396,188.421ZM343.2,188.421L340.483,188.421L340.483,177.735C340.483,176.859 340.539,175.789 340.645,174.523L340.597,174.523C340.429,175.243 340.279,175.762 340.149,176.076L335.219,188.421L333.332,188.421L328.39,176.171C328.253,175.809 328.103,175.259 327.95,174.523L327.907,174.523C327.966,175.184 327.997,176.261 327.997,177.759L327.997,188.421L325.465,188.421L325.465,171.909L329.322,171.909L333.662,182.905C333.992,183.75 334.209,184.379 334.311,184.792L334.366,184.792C334.653,183.928 334.881,183.283 335.058,182.858L339.481,171.909L343.2,171.909L343.2,188.421ZM356.54,188.421L347.269,188.421L347.269,171.909L356.17,171.909L356.17,174.244L350.01,174.244L350.01,178.915L355.687,178.915L355.687,181.226L350.01,181.226L350.01,186.109L356.54,186.109L356.54,188.421ZM372.238,188.421L369.034,188.421L366.396,184.002C366.16,183.593 365.928,183.247 365.7,182.96C365.472,182.673 365.244,182.437 365.008,182.253C364.776,182.068 364.521,181.934 364.242,181.848C363.966,181.765 363.656,181.722 363.31,181.722L362.205,181.722L362.205,188.421L359.476,188.421L359.476,171.909L364.91,171.909C365.689,171.909 366.4,171.999 367.053,172.184C367.705,172.369 368.275,172.648 368.759,173.022C369.242,173.391 369.62,173.859 369.891,174.413C370.166,174.971 370.3,175.62 370.3,176.367C370.3,176.949 370.214,177.488 370.045,177.975C369.871,178.463 369.624,178.895 369.305,179.277C368.987,179.658 368.601,179.98 368.153,180.247C367.705,180.519 367.198,180.727 366.64,180.873L366.64,180.916C366.939,181.085 367.198,181.274 367.422,181.474C367.646,181.679 367.855,181.887 368.055,182.103C368.256,182.32 368.452,182.563 368.649,182.834C368.845,183.106 369.062,183.424 369.301,183.782L372.238,188.421ZM362.205,174.126L362.205,179.504L364.485,179.504C364.906,179.504 365.299,179.438 365.653,179.308C366.011,179.178 366.321,178.989 366.581,178.742C366.844,178.498 367.045,178.195 367.19,177.841C367.339,177.488 367.41,177.091 367.41,176.654C367.41,175.86 367.163,175.243 366.663,174.794C366.164,174.35 365.445,174.126 364.509,174.126L362.205,174.126Z" style="fill:none;stroke:#393938;stroke-width:0.57px;"></path></svg>